<?xml version="1.0" standalone="no"?>
<!DOCTYPE svg PUBLIC "-//W3C//DTD SVG 20010904//EN"
 "http://www.w3.org/TR/2001/REC-SVG-20010904/DTD/svg10.dtd">
<svg version="1.0" xmlns="http://www.w3.org/2000/svg"
 width="500.000000pt" height="500.000000pt" viewBox="0 0 500.000000 500.000000"
 preserveAspectRatio="xMidYMid meet">
<metadata>
Created by potrace 1.11, written by Peter Selinger 2001-2013
</metadata>
<g transform="translate(0.000000,500.000000) scale(0.100000,-0.100000)"
fill="#000000" stroke="none">
<path d="M2497 4393 c-2 -1 -34 -3 -72 -4 -39 -1 -76 -6 -82 -12 -9 -6 -13 -6
-13 2 0 7 -4 10 -9 6 -6 -3 -29 -8 -53 -11 -24 -4 -45 -10 -46 -15 -2 -5 -8
-7 -13 -3 -5 3 -35 0 -67 -7 -31 -8 -61 -14 -67 -14 -5 0 -14 -3 -20 -7 -5 -3
-37 -13 -70 -23 -33 -9 -63 -22 -67 -28 -6 -9 -8 -9 -8 1 0 9 -5 9 -17 2 -39
-21 -179 -83 -190 -83 -7 0 -13 -4 -13 -7 0 -4 -26 -20 -57 -36 -32 -15 -60
-30 -63 -34 -3 -3 -29 -21 -58 -39 -30 -19 -59 -39 -65 -46 -7 -6 -19 -16 -28
-21 -64 -36 -376 -343 -350 -344 3 0 -1 -6 -9 -13 -20 -16 -73 -87 -65 -87 4
0 -1 -7 -9 -16 -20 -19 -71 -107 -116 -199 -19 -38 -39 -73 -45 -77 -5 -4 -6
-8 -2 -8 4 0 2 -10 -5 -22 -7 -13 -11 -26 -10 -30 1 -5 -3 -8 -10 -8 -6 0 -8
-3 -5 -7 4 -3 0 -17 -9 -31 -11 -17 -12 -22 -3 -17 8 5 5 -1 -5 -13 -11 -12
-16 -22 -13 -22 3 0 -3 -26 -14 -57 -11 -32 -21 -66 -23 -78 -2 -11 -9 -38
-14 -60 -15 -56 -27 -131 -38 -235 -5 -48 -4 -317 0 -360 12 -101 19 -147 27
-161 4 -9 6 -19 3 -22 -3 -3 -2 -11 2 -18 4 -7 9 -22 10 -33 3 -33 26 -117 42
-156 3 -8 6 -19 7 -25 1 -5 9 -27 18 -49 9 -21 17 -40 17 -41 0 -2 16 -38 35
-79 19 -42 35 -80 35 -85 0 -5 3 -11 8 -13 4 -2 18 -25 32 -53 14 -27 29 -55
35 -61 5 -6 28 -38 50 -72 21 -33 44 -58 49 -55 5 3 6 2 3 -4 -11 -17 181
-240 196 -228 4 3 5 2 2 -2 -7 -9 26 -43 42 -43 8 0 11 -5 8 -10 -3 -6 2 -13
12 -17 10 -4 27 -16 39 -28 33 -31 74 -65 79 -65 3 0 15 -9 27 -20 12 -11 28
-20 35 -20 7 0 13 -4 13 -10 0 -5 7 -10 16 -10 8 0 12 -5 9 -10 -3 -6 4 -10
16 -10 12 0 19 -3 16 -7 -8 -7 5 -14 165 -94 64 -33 124 -59 132 -59 9 0 16
-4 16 -10 0 -5 3 -9 8 -8 4 2 21 -2 37 -9 56 -21 70 -26 85 -29 8 -1 40 -9 70
-18 67 -19 203 -43 286 -50 33 -3 68 -8 76 -11 9 -4 19 -2 23 4 4 7 13 8 23 3
19 -10 161 -8 267 3 104 11 120 13 120 15 0 1 11 3 25 5 14 2 36 6 50 9 14 3
49 11 78 17 28 7 52 16 52 21 0 5 4 7 9 4 10 -6 115 27 107 34 -2 3 6 6 18 6
20 2 44 11 156 62 19 9 38 21 42 26 4 6 8 8 8 3 0 -4 18 4 40 18 22 14 42 25
44 25 8 0 128 82 150 103 11 9 23 17 28 17 25 0 235 198 318 300 25 30 47 57
50 60 17 16 60 80 60 89 0 6 5 11 10 11 6 0 10 7 10 15 0 8 4 15 9 15 5 0 11
8 15 18 7 21 28 55 40 63 5 4 5 12 2 18 -4 6 -3 11 2 11 9 0 92 157 92 174 0
4 6 22 14 39 17 39 41 100 41 107 1 3 6 21 13 41 12 35 21 67 27 99 1 8 5 22
8 30 3 8 9 32 12 54 3 21 7 42 10 46 25 41 25 514 -1 630 -3 14 -7 39 -10 55
-4 24 -20 88 -38 150 -1 6 -8 30 -15 55 -7 25 -16 50 -21 55 -8 12 -24 66 -22
78 1 4 -2 7 -8 7 -5 0 -10 5 -10 12 0 17 -81 182 -92 186 -4 2 -8 10 -8 17 0
8 -6 20 -13 27 -7 7 -18 24 -25 38 -31 61 -44 80 -51 80 -4 0 -13 12 -19 26
-7 15 -17 22 -24 18 -7 -5 -8 -3 -4 5 5 8 -13 36 -46 74 -78 91 -185 197 -198
197 -6 0 -8 5 -5 10 3 6 2 10 -3 10 -5 0 -20 11 -33 23 -33 33 -197 150 -259
185 -8 5 -24 14 -35 20 -11 7 -49 26 -85 43 -36 17 -77 37 -92 45 -15 8 -31
15 -35 16 -5 0 -19 5 -33 10 -14 5 -27 10 -30 10 -3 0 -26 9 -52 19 -27 10
-48 16 -48 14 0 -3 -9 -1 -20 5 -22 12 -128 35 -247 55 -13 2 -27 6 -32 9 -5
4 -12 2 -16 -4 -4 -6 -12 -7 -18 -3 -6 4 -32 8 -57 10 -69 5 -201 9 -203 6z
m-153 -853 c-3 -3 -10 -6 -15 -6 -5 -1 -10 -2 -11 -4 -11 -8 -35 -5 -35 4 0 7
15 12 33 12 18 0 31 -3 28 -6z"/>
</g>
</svg>
